<svg xmlns="http://www.w3.org/2000/svg" width="1440" height="900" viewBox="0 0 1440 900" fill="none">
  <defs>
    <linearGradient id="sky" x1="0" y1="0" x2="0" y2="900" gradientUnits="userSpaceOnUse">
      <stop offset="0" stop-color="#4C2B8C"/>
      <stop offset="0.55" stop-color="#3A1B6E"/>
      <stop offset="1" stop-color="#1C0B3A"/>
    </linearGradient>
    <linearGradient id="glow" x1="0" y1="0" x2="1" y2="1">
      <stop offset="0" stop-color="#9A6BFF" stop-opacity="0.55"/>
      <stop offset="1" stop-color="#00D4FF" stop-opacity="0.25"/>
    </linearGradient>
  </defs>
  <rect width="1440" height="900" fill="url(#sky)"/>
  <circle cx="250" cy="120" r="180" fill="url(#glow)"/>
  <circle cx="1220" cy="220" r="220" fill="url(#glow)"/>

  <g fill="#FFFFFF" opacity="0.8">
    <circle cx="140" cy="90" r="2"/>
    <circle cx="320" cy="160" r="1.5"/>
    <circle cx="480" cy="110" r="1.5"/>
    <circle cx="620" cy="90" r="2"/>
    <circle cx="760" cy="170" r="1.8"/>
    <circle cx="930" cy="120" r="1.6"/>
    <circle cx="1080" cy="80" r="1.5"/>
    <circle cx="1260" cy="140" r="2"/>
    <circle cx="1320" cy="210" r="1.5"/>
  </g>

  <g opacity="0.7">
    <path d="M0 700 C 200 640, 360 640, 520 700 C 680 760, 860 770, 1020 720 C 1200 660, 1320 660, 1440 710 L 1440 900 L 0 900 Z" fill="#2A1354"/>
    <path d="M0 760 C 180 720, 360 740, 520 800 C 720 880, 920 880, 1120 820 C 1280 780, 1360 780, 1440 820 L 1440 900 L 0 900 Z" fill="#1A0B36"/>
  </g>
</svg>
